<svg xmlns="http://www.w3.org/2000/svg" xmlns:xlink="http://www.w3.org/1999/xlink" width="199" height="201" viewBox="0 0 199 201">
  <defs>
    <clipPath id="clip-path">
      <rect id="Rectangle_562" data-name="Rectangle 562" width="199" height="201" transform="translate(0.135 -0.5)" fill="none"/>
    </clipPath>
  </defs>
  <g id="Group_875" data-name="Group 875" transform="translate(-0.135 0.5)">
    <g id="Group_874" data-name="Group 874" transform="translate(0 0)" clip-path="url(#clip-path)">
      <path id="Path_2953" data-name="Path 2953" d="M104.524,203.991A99.459,99.459,0,1,0,5.071,104.526a99.656,99.656,0,0,0,99.453,99.465" transform="translate(-4.968 -4.547)" fill="#fefefe" fill-rule="evenodd"/>
      <path id="Path_2954" data-name="Path 2954" d="M99.924,0A99.924,99.924,0,1,1,0,99.927,99.927,99.927,0,0,1,99.924,0m0,20.782A79.141,79.141,0,1,1,20.782,99.927,79.146,79.146,0,0,1,99.924,20.785" transform="translate(-0.368 0.052)" fill="#ef0e5b" fill-rule="evenodd"/>
      <rect id="Rectangle_559" data-name="Rectangle 559" width="7.327" height="28.333" transform="translate(81.008 72.94)" fill="#a0ebfb"/>
      <rect id="Rectangle_560" data-name="Rectangle 560" width="7.327" height="28.333" transform="translate(111.752 72.94)" fill="#a0ebfb"/>
      <rect id="Rectangle_561" data-name="Rectangle 561" width="14.972" height="6.457" transform="translate(92.476 83.795)" fill="#a0ebfb"/>
      <path id="Path_2955" data-name="Path 2955" d="M583.735,1029.93l89.374.176L629.016,977.84Z" transform="translate(-529.943 -887.058)" fill="#ef0e5b" fill-rule="evenodd"/>
      <path id="Path_2956" data-name="Path 2956" d="M501.014,460.125c1.835,1.458,6,3.8,8.021,5.01,4.7,2.905,3.623,2.54,10.385,2.752,8.374.259,17.9.964,26.122.67L529.97,455.75c-1.305-1.211-2.246-2.058-3.622-3.187l-10.856-10.115-3.752-3.117a37.547,37.547,0,0,1-7.221-11.785c-2.67-6.6-3.764-13.866-1.317-21.217,3.6-10.809,15.831-20.053,30.356-19.982,28.157.129,40.647,30.744,25.887,49.75a27.582,27.582,0,0,1-2.987,3.387c-.717.67-1.141,1.258-1.729,1.87-1.423,1.505-.482.447-1.341,1.423l.753.776c4.034,5.74,9.233,10.632,13.384,16.066l.517.412c.247.8,1.141-.153,1.8-.494,3.481-1.788,8.9-8.609,10.15-10.373,23.84-33.72,3.775-86.433-46.434-86.9-25.545-.247-46.7,16.089-52.514,35.519-3.646,12.208-3.187,25.922,1.411,37.024,5.293,12.82,9.491,16.56,18.559,25.322" transform="translate(-434.578 -328.591)" fill="#13befc" fill-rule="evenodd"/>
      <path id="Path_2957" data-name="Path 2957" d="M864.131,720.136c.047,1.588,1.67,1.482,2.658,2.117l.059-.764a1.7,1.7,0,0,1-1.047-1.482A8.959,8.959,0,0,1,864.131,720.136Z" transform="translate(-784.322 -653.148)" fill="none" stroke="#fff" stroke-miterlimit="10" stroke-width="0.51"/>
      <path id="Path_2958" data-name="Path 2958" d="M864.131,720.136c.047,1.588,1.67,1.482,2.658,2.117l.059-.764a1.7,1.7,0,0,1-1.047-1.482,8.959,8.959,0,0,1-1.67.129" transform="translate(-784.322 -653.148)" fill="#4672b7" fill-rule="evenodd"/>
      <path id="Path_2959" data-name="Path 2959" d="M882.131,710.692a1.7,1.7,0,0,0,1.047,1.482,4.017,4.017,0,0,0,2.658-.388,3.022,3.022,0,0,1-.329-2.047A20.807,20.807,0,0,1,882.131,710.692Z" transform="translate(-800.652 -643.832)" fill="none" stroke="#fff" stroke-miterlimit="10" stroke-width="0.51"/>
      <path id="Path_2960" data-name="Path 2960" d="M882.131,710.692a1.7,1.7,0,0,0,1.047,1.482,4.017,4.017,0,0,0,2.658-.388,3.022,3.022,0,0,1-.329-2.047,20.807,20.807,0,0,1-3.375.953" transform="translate(-800.652 -643.832)" fill="#4672b7" fill-rule="evenodd"/>
      <path id="Path_2961" data-name="Path 2961" d="M895.212,731.8a4.017,4.017,0,0,1-2.658.388l-.059.765c-.247,1.846,1.106,2.223,3.223,1.882.118,1.435.929,2.258,2.646,2.317A2.488,2.488,0,0,1,898.67,735a2.116,2.116,0,0,1-2.917-2.764A1.328,1.328,0,0,1,895.212,731.8Z" transform="translate(-810.029 -663.843)" fill="none" stroke="#fff" stroke-miterlimit="10" stroke-width="0.51"/>
      <path id="Path_2962" data-name="Path 2962" d="M895.212,731.8a4.017,4.017,0,0,1-2.658.388l-.059.765c-.247,1.846,1.106,2.223,3.223,1.882.118,1.435.929,2.258,2.646,2.317A2.488,2.488,0,0,1,898.67,735a2.116,2.116,0,0,1-2.917-2.764,1.328,1.328,0,0,1-.541-.435" transform="translate(-810.029 -663.843)" fill="#4672b7" fill-rule="evenodd"/>
      <path id="Path_2963" data-name="Path 2963" d="M954.828,762.273a2.4,2.4,0,0,0-.247,2.129,7.6,7.6,0,0,0,1.47-.118A3.333,3.333,0,0,0,957.6,765.6a7.88,7.88,0,0,1,.306-3.1,2.832,2.832,0,0,1-2.317-.659A4.219,4.219,0,0,1,954.828,762.273Z" transform="translate(-866.245 -691.098)" fill="none" stroke="#fff" stroke-miterlimit="10" stroke-width="0.51"/>
      <path id="Path_2964" data-name="Path 2964" d="M954.828,762.273a2.4,2.4,0,0,0-.247,2.129,7.6,7.6,0,0,0,1.47-.118A3.333,3.333,0,0,0,957.6,765.6a7.88,7.88,0,0,1,.306-3.1,2.832,2.832,0,0,1-2.317-.659,4.219,4.219,0,0,1-.765.435" transform="translate(-866.245 -691.098)" fill="#4672b7" fill-rule="evenodd"/>
      <path id="Path_2965" data-name="Path 2965" d="M988.512,768.937a7.885,7.885,0,0,0-.306,3.1,1.9,1.9,0,0,0,1.611-.223A10.314,10.314,0,0,1,988.512,768.937Z" transform="translate(-896.848 -697.538)" fill="none" stroke="#fff" stroke-miterlimit="10" stroke-width="0.51"/>
      <path id="Path_2966" data-name="Path 2966" d="M988.512,768.937a7.885,7.885,0,0,0-.306,3.1,1.9,1.9,0,0,0,1.611-.223,10.314,10.314,0,0,1-1.305-2.882" transform="translate(-896.848 -697.538)" fill="#4672b7" fill-rule="evenodd"/>
      <path id="Path_2967" data-name="Path 2967" d="M951.343,695.853c.694,1.517,2.082,1.623,3.811,1.011-.623-.553-.6-1.835-.035-3.775a7.451,7.451,0,0,0-3.246.271A6.381,6.381,0,0,0,951.343,695.853Z" transform="translate(-863.442 -628.653)" fill="none" stroke="#fff" stroke-miterlimit="10" stroke-width="0.51"/>
      <path id="Path_2968" data-name="Path 2968" d="M951.343,695.853c.694,1.517,2.082,1.623,3.811,1.011-.623-.553-.6-1.835-.035-3.775a7.451,7.451,0,0,0-3.246.271,6.381,6.381,0,0,0-.529,2.493" transform="translate(-863.442 -628.653)" fill="#4672b7" fill-rule="evenodd"/>
      <path id="Path_2969" data-name="Path 2969" d="M987.85,693.894c-.565,1.941-.588,3.223.035,3.775a6.39,6.39,0,0,1,1.917-2.764A3.917,3.917,0,0,0,987.85,693.894Z" transform="translate(-896.174 -629.458)" fill="none" stroke="#fff" stroke-miterlimit="10" stroke-width="0.51"/>
      <path id="Path_2970" data-name="Path 2970" d="M987.85,693.894c-.565,1.941-.588,3.223.035,3.775a6.39,6.39,0,0,1,1.917-2.764,3.917,3.917,0,0,0-1.952-1.011" transform="translate(-896.174 -629.458)" fill="#4672b7" fill-rule="evenodd"/>
      <path id="Path_2971" data-name="Path 2971" d="M921.273,699.3a6.378,6.378,0,0,1,.529-2.493c-1.153.306-2.364.776-3.575,1.2v.012c-.223,2.34.823,3.223,3.611,2.094A2.624,2.624,0,0,1,921.273,699.3Z" transform="translate(-833.372 -632.103)" fill="none" stroke="#fff" stroke-miterlimit="10" stroke-width="0.51"/>
      <path id="Path_2972" data-name="Path 2972" d="M921.273,699.3a6.378,6.378,0,0,1,.529-2.493c-1.153.306-2.364.776-3.575,1.2v.012c-.223,2.34.823,3.223,3.611,2.094a2.624,2.624,0,0,1-.565-.812" transform="translate(-833.372 -632.103)" fill="#4672b7" fill-rule="evenodd"/>
      <path id="Path_2973" data-name="Path 2973" d="M889.118,711.844c-2.787,1.129-3.834.247-3.611-2.094v-.012a20.811,20.811,0,0,1-3.376.953,1.7,1.7,0,0,0,1.047,1.482,4.016,4.016,0,0,0,2.658-.388,1.325,1.325,0,0,0,.541.435,2.112,2.112,0,0,0,2.858,2.787,4.947,4.947,0,0,0,.764-.423,2.442,2.442,0,0,1-.306-2.364A2.317,2.317,0,0,1,889.118,711.844Z" transform="translate(-800.653 -643.832)" fill="none" stroke="#fff" stroke-miterlimit="10" stroke-width="0.51"/>
      <path id="Path_2974" data-name="Path 2974" d="M889.118,711.844c-2.787,1.129-3.834.247-3.611-2.094v-.012a20.811,20.811,0,0,1-3.376.953,1.7,1.7,0,0,0,1.047,1.482,4.016,4.016,0,0,0,2.658-.388,1.325,1.325,0,0,0,.541.435,2.112,2.112,0,0,0,2.858,2.787,4.947,4.947,0,0,0,.764-.423,2.442,2.442,0,0,1-.306-2.364,2.317,2.317,0,0,1-.576-.376" transform="translate(-800.653 -643.832)" fill="#4672b7" fill-rule="evenodd"/>
      <path id="Path_2975" data-name="Path 2975" d="M962.485,737.125v0Zm-.306-2.364a2.441,2.441,0,0,0,.306,2.364,1.78,1.78,0,0,0,.517.376,3.767,3.767,0,0,0,1.8.271,5.636,5.636,0,0,1,.047-3.187A3.835,3.835,0,0,1,962.179,734.761Z" transform="translate(-873.138 -666.373)" fill="none" stroke="#fff" stroke-miterlimit="10" stroke-width="0.51"/>
      <path id="Path_2976" data-name="Path 2976" d="M962.485,737.125v0Zm-.306-2.364a2.441,2.441,0,0,0,.306,2.364,1.78,1.78,0,0,0,.517.376,3.767,3.767,0,0,0,1.8.271,5.636,5.636,0,0,1,.047-3.187,3.835,3.835,0,0,1-2.67.176" transform="translate(-873.138 -666.373)" fill="#4672b7" fill-rule="evenodd"/>
      <path id="Path_2977" data-name="Path 2977" d="M1271.217,720.136c-.047,1.588-1.658,1.482-2.646,2.117l-.071-.764a1.7,1.7,0,0,0,1.047-1.482A9.038,9.038,0,0,0,1271.217,720.136Z" transform="translate(-1151.173 -653.148)" fill="none" stroke="#fff" stroke-miterlimit="10" stroke-width="0.51"/>
      <path id="Path_2978" data-name="Path 2978" d="M1271.217,720.136c-.047,1.588-1.658,1.482-2.646,2.117l-.071-.764a1.7,1.7,0,0,0,1.047-1.482,9.038,9.038,0,0,0,1.67.129" transform="translate(-1151.173 -653.148)" fill="#4672b7" fill-rule="evenodd"/>
      <path id="Path_2979" data-name="Path 2979" d="M1243.671,710.692a1.7,1.7,0,0,1-1.047,1.482,3.978,3.978,0,0,1-2.646-.388,3.092,3.092,0,0,0,.329-2.047A20.368,20.368,0,0,0,1243.671,710.692Z" transform="translate(-1125.297 -643.832)" fill="none" stroke="#fff" stroke-miterlimit="10" stroke-width="0.51"/>
      <path id="Path_2980" data-name="Path 2980" d="M1243.671,710.692a1.7,1.7,0,0,1-1.047,1.482,3.978,3.978,0,0,1-2.646-.388,3.092,3.092,0,0,0,.329-2.047,20.368,20.368,0,0,0,3.364.953" transform="translate(-1125.297 -643.832)" fill="#4672b7" fill-rule="evenodd"/>
      <path id="Path_2981" data-name="Path 2981" d="M1206.053,731.8a3.977,3.977,0,0,0,2.646.388l.071.765c.235,1.846-1.106,2.223-3.234,1.882-.118,1.435-.917,2.258-2.635,2.317a2.5,2.5,0,0,0-.318-2.152,2.124,2.124,0,0,0,2.929-2.764A1.413,1.413,0,0,0,1206.053,731.8Z" transform="translate(-1091.372 -663.843)" fill="none" stroke="#fff" stroke-miterlimit="10" stroke-width="0.51"/>
      <path id="Path_2982" data-name="Path 2982" d="M1206.053,731.8a3.977,3.977,0,0,0,2.646.388l.071.765c.235,1.846-1.106,2.223-3.234,1.882-.118,1.435-.917,2.258-2.635,2.317a2.5,2.5,0,0,0-.318-2.152,2.124,2.124,0,0,0,2.929-2.764,1.413,1.413,0,0,0,.541-.435" transform="translate(-1091.372 -663.843)" fill="#4672b7" fill-rule="evenodd"/>
      <path id="Path_2983" data-name="Path 2983" d="M1173.087,762.273a2.407,2.407,0,0,1,.259,2.129,7.531,7.531,0,0,1-1.47-.118,3.41,3.41,0,0,1-1.564,1.317,7.665,7.665,0,0,0-.306-3.1,2.818,2.818,0,0,0,2.317-.659A4.222,4.222,0,0,0,1173.087,762.273Z" transform="translate(-1061.817 -691.098)" fill="none" stroke="#fff" stroke-miterlimit="10" stroke-width="0.51"/>
      <path id="Path_2984" data-name="Path 2984" d="M1173.087,762.273a2.407,2.407,0,0,1,.259,2.129,7.531,7.531,0,0,1-1.47-.118,3.41,3.41,0,0,1-1.564,1.317,7.665,7.665,0,0,0-.306-3.1,2.818,2.818,0,0,0,2.317-.659,4.222,4.222,0,0,0,.764.435" transform="translate(-1061.817 -691.098)" fill="#4672b7" fill-rule="evenodd"/>
      <path id="Path_2985" data-name="Path 2985" d="M1157.356,768.937a7.667,7.667,0,0,1,.306,3.1,1.878,1.878,0,0,1-1.6-.223A10.254,10.254,0,0,0,1157.356,768.937Z" transform="translate(-1049.167 -697.538)" fill="none" stroke="#fff" stroke-miterlimit="10" stroke-width="0.51"/>
      <path id="Path_2986" data-name="Path 2986" d="M1157.356,768.937a7.667,7.667,0,0,1,.306,3.1,1.878,1.878,0,0,1-1.6-.223,10.254,10.254,0,0,0,1.294-2.882" transform="translate(-1049.167 -697.538)" fill="#4672b7" fill-rule="evenodd"/>
      <path id="Path_2987" data-name="Path 2987" d="M1173.31,695.853c-.694,1.517-2.07,1.623-3.811,1.011.623-.553.612-1.835.047-3.775a7.411,7.411,0,0,1,3.234.271A6.378,6.378,0,0,1,1173.31,695.853Z" transform="translate(-1061.357 -628.653)" fill="none" stroke="#fff" stroke-miterlimit="10" stroke-width="0.51"/>
      <path id="Path_2988" data-name="Path 2988" d="M1173.31,695.853c-.694,1.517-2.07,1.623-3.811,1.011.623-.553.612-1.835.047-3.775a7.411,7.411,0,0,1,3.234.271,6.378,6.378,0,0,1,.529,2.493" transform="translate(-1061.357 -628.653)" fill="#4672b7" fill-rule="evenodd"/>
      <path id="Path_2989" data-name="Path 2989" d="M1150.8,693.894c.565,1.941.576,3.223-.047,3.775a6.39,6.39,0,0,0-1.917-2.764A3.906,3.906,0,0,1,1150.8,693.894Z" transform="translate(-1042.613 -629.458)" fill="none" stroke="#fff" stroke-miterlimit="10" stroke-width="0.51"/>
      <path id="Path_2990" data-name="Path 2990" d="M1150.8,693.894c.565,1.941.576,3.223-.047,3.775a6.39,6.39,0,0,0-1.917-2.764,3.906,3.906,0,0,1,1.964-1.011" transform="translate(-1042.613 -629.458)" fill="#4672b7" fill-rule="evenodd"/>
      <path id="Path_2991" data-name="Path 2991" d="M1205.05,699.3a6.379,6.379,0,0,0-.529-2.493c1.153.306,2.364.776,3.587,1.2v.012c.212,2.34-.835,3.223-3.623,2.094A2.62,2.62,0,0,0,1205.05,699.3Z" transform="translate(-1093.097 -632.103)" fill="none" stroke="#fff" stroke-miterlimit="10" stroke-width="0.51"/>
      <path id="Path_2992" data-name="Path 2992" d="M1205.05,699.3a6.379,6.379,0,0,0-.529-2.493c1.153.306,2.364.776,3.587,1.2v.012c.212,2.34-.835,3.223-3.623,2.094a2.62,2.62,0,0,0,.565-.812" transform="translate(-1093.097 -632.103)" fill="#4672b7" fill-rule="evenodd"/>
      <path id="Path_2993" data-name="Path 2993" d="M1195.975,711.844c2.787,1.129,3.834.247,3.622-2.094v-.012a20.358,20.358,0,0,0,3.364.953,1.7,1.7,0,0,1-1.047,1.482,3.977,3.977,0,0,1-2.646-.388,1.407,1.407,0,0,1-.541.435,2.117,2.117,0,0,1-2.87,2.787,4.368,4.368,0,0,1-.753-.423,2.474,2.474,0,0,0,.294-2.364A2.126,2.126,0,0,0,1195.975,711.844Z" transform="translate(-1084.588 -643.832)" fill="none" stroke="#fff" stroke-miterlimit="10" stroke-width="0.51"/>
      <path id="Path_2994" data-name="Path 2994" d="M1195.975,711.844c2.787,1.129,3.834.247,3.622-2.094v-.012a20.358,20.358,0,0,0,3.364.953,1.7,1.7,0,0,1-1.047,1.482,3.977,3.977,0,0,1-2.646-.388,1.407,1.407,0,0,1-.541.435,2.117,2.117,0,0,1-2.87,2.787,4.368,4.368,0,0,1-.753-.423,2.474,2.474,0,0,0,.294-2.364,2.126,2.126,0,0,0,.576-.376" transform="translate(-1084.588 -643.832)" fill="#4672b7" fill-rule="evenodd"/>
      <path id="Path_2995" data-name="Path 2995" d="M1171.875,737.125a.012.012,0,0,0-.012-.012A.012.012,0,0,1,1171.875,737.125Zm.294-2.364a2.474,2.474,0,0,1-.294,2.364,2.166,2.166,0,0,1-.518.376,3.819,3.819,0,0,1-1.8.271h-.012a5.533,5.533,0,0,0-.047-3.187A3.839,3.839,0,0,0,1172.169,734.761Z" transform="translate(-1061.357 -666.373)" fill="none" stroke="#fff" stroke-miterlimit="10" stroke-width="0.51"/>
      <path id="Path_2996" data-name="Path 2996" d="M1171.875,737.125a.012.012,0,0,0-.012-.012.012.012,0,0,1,.012.012m.294-2.364a2.474,2.474,0,0,1-.294,2.364,2.166,2.166,0,0,1-.518.376,3.819,3.819,0,0,1-1.8.271h-.012a5.533,5.533,0,0,0-.047-3.187,3.839,3.839,0,0,0,2.67.176" transform="translate(-1061.357 -666.373)" fill="#4672b7" fill-rule="evenodd"/>
      <path id="Path_2997" data-name="Path 2997" d="M1069.175,668.035a1.206,1.206,0,1,1-1.212,1.2,1.21,1.21,0,0,1,1.212-1.2" transform="translate(-969.243 -605.998)" fill="#4672b7" fill-rule="evenodd"/>
      <path id="Path_2998" data-name="Path 2998" d="M1005.721,697.507a1.189,1.189,0,0,1-.882-.259c-2.129-1.047-3.587-.012-4.281,2.446-.894,3.2,3.128,6.645,6.28,7l.024.847c-15.525-3.034-2.905-18.112-1.141-10.032" transform="translate(-906.871 -630.6)" fill="#4672b7" fill-rule="evenodd"/>
      <line id="Line_119" data-name="Line 119" x2="0.165" y2="0.212" transform="translate(98.85 66.906)" fill="none" stroke="blue" stroke-miterlimit="10" stroke-width="0.992"/>
      <path id="Path_2999" data-name="Path 2999" d="M1062.008,710.88a.13.13,0,1,1,0,.259.129.129,0,1,1,0-.259" transform="translate(-963.723 -644.868)" fill="#4672b7" fill-rule="evenodd"/>
      <path id="Path_3000" data-name="Path 3000" d="M1027.313,719.753c.106,1.047.988,1.647,2.646,1.811v5.187a1.214,1.214,0,0,1-1.282.623c-3.881-3.634-3.916-6.034-1.364-7.621" transform="translate(-930.767 -652.917)" fill="#4672b7" fill-rule="evenodd"/>
      <path id="Path_3001" data-name="Path 3001" d="M1082.161,697.507a1.165,1.165,0,0,0,.882-.259c2.141-1.047,3.587-.012,4.281,2.446.894,3.2-3.128,6.645-6.269,7l-.035.847c15.525-3.034,2.917-18.112,1.141-10.032" transform="translate(-981.088 -630.6)" fill="#4672b7" fill-rule="evenodd"/>
      <line id="Line_120" data-name="Line 120" x1="0.165" y2="0.212" transform="translate(100.908 66.906)" fill="none" stroke="blue" stroke-miterlimit="10" stroke-width="0.992"/>
      <path id="Path_3002" data-name="Path 3002" d="M1098.135,710.88a.129.129,0,1,0,.129.129.131.131,0,0,0-.129-.129" transform="translate(-996.498 -644.868)" fill="#4672b7" fill-rule="evenodd"/>
      <path id="Path_3003" data-name="Path 3003" d="M1092.4,719.753c-.094,1.047-.988,1.647-2.635,1.811v5.187a1.2,1.2,0,0,0,1.27.623c3.881-3.634,3.917-6.034,1.364-7.621" transform="translate(-989.022 -652.917)" fill="#4672b7" fill-rule="evenodd"/>
      <path id="Path_3004" data-name="Path 3004" d="M1046.865,825.595a2.815,2.815,0,0,0-3.493,2.976c0,1.882,1.235,3.27,3.505,3.658v-.988a2.245,2.245,0,0,1-2-2.6,2.2,2.2,0,0,1,2.023-2.105c-.012-.318-.023-.623-.035-.941" transform="translate(-946.933 -748.903)" fill="#4672b7" fill-rule="evenodd"/>
      <path id="Path_3005" data-name="Path 3005" d="M1080.548,825.595a2.814,2.814,0,0,1,3.493,2.976c0,1.882-1.235,3.27-3.5,3.658v-.988a2.245,2.245,0,0,0,2-2.6,2.2,2.2,0,0,0-2.023-2.105c.012-.318.024-.623.035-.941" transform="translate(-980.628 -748.903)" fill="#4672b7" fill-rule="evenodd"/>
      <path id="Path_3006" data-name="Path 3006" d="M1050.627,893.162a3.055,3.055,0,1,1-3.2,3.046,3.13,3.13,0,0,1,3.2-3.046m0,.906a2.2,2.2,0,1,1-2,2.188,2.1,2.1,0,0,1,2-2.188" transform="translate(-950.612 -810.237)" fill="#4672b7" fill-rule="evenodd"/>
      <path id="Path_3007" data-name="Path 3007" d="M1059.585,1058.84a2.692,2.692,0,0,0-2.27,2.293,2.234,2.234,0,0,0,1.505,2.058c.4.212.388.47-.106.764-.106.071-.224.094-.059.223.188.141.482-.212.906-1.211a2.481,2.481,0,0,1-1.388-1.693c-.106-.906.306-1.517,1.388-1.729Z" transform="translate(-959.582 -960.543)" fill="#4672b7" fill-rule="evenodd"/>
      <path id="Path_3008" data-name="Path 3008" d="M1081.273,1058.84a2.72,2.72,0,0,1,2.27,2.293,2.234,2.234,0,0,1-1.505,2.058c-.4.212-.388.47.106.764.106.071.212.094.047.223s-.47-.212-.906-1.211a2.481,2.481,0,0,0,1.388-1.693c.106-.906-.306-1.517-1.388-1.729Z" transform="translate(-981.317 -960.543)" fill="#4672b7" fill-rule="evenodd"/>
      <path id="Path_3009" data-name="Path 3009" d="M1054.766,956.3c-3.246-.294-4.116,4.834-.035,5.693v-.506c-2.494-.965-2.635-3.952-.023-4.222Z" transform="translate(-954.752 -867.503)" fill="#4672b7" fill-rule="evenodd"/>
      <path id="Path_3010" data-name="Path 3010" d="M1081.907,956.3c3.258-.294,4.117,4.834.047,5.693v-.506c2.482-.965,2.623-3.952.012-4.222Z" transform="translate(-981.892 -867.503)" fill="#4672b7" fill-rule="evenodd"/>
      <path id="Path_3011" data-name="Path 3011" d="M1058.292,1014.22c-3.07.706-3.27,3.716.012,4.587l.012-.541c-2.388-.8-2.129-2.658-.023-3.329Z" transform="translate(-958.312 -920.063)" fill="#4672b7" fill-rule="evenodd"/>
      <path id="Path_3012" data-name="Path 3012" d="M1081.436,1014.22c3.058.706,3.27,3.716-.024,4.587l-.012-.541c2.387-.8,2.141-2.658.035-3.329Z" transform="translate(-981.433 -920.063)" fill="#4672b7" fill-rule="evenodd"/>
      <path id="Path_3013" data-name="Path 3013" d="M1076.837,693.133h.776l-.165,41.858h-.459Z" transform="translate(-977.293 -628.768)" fill="#4672b7" fill-rule="evenodd"/>
      <path id="Path_3014" data-name="Path 3014" d="M668.412,1627.548v-16.031h3.14l6.6,10.738v-10.738h3v16.031H677.9l-6.492-10.538v10.538Zm35.554,0h-3.493l-1.388-3.658h-6.422l-1.341,3.658H687.9l6.222-16.031h3.422Zm-5.928-6.363-2.235-5.928-2.164,5.928Zm12.608-9.668h6.41a18.263,18.263,0,0,1,2.835.165,4.254,4.254,0,0,1,1.67.659,4.072,4.072,0,0,1,1.235,1.329,3.8,3.8,0,0,1-.118,3.94,3.724,3.724,0,0,1-1.635,1.4,4.3,4.3,0,0,1,2.246,1.458,3.9,3.9,0,0,1,.776,2.423,4.758,4.758,0,0,1-.506,2.129,4.274,4.274,0,0,1-1.388,1.658,4.564,4.564,0,0,1-2.176.753c-.529.059-1.835.094-3.893.118h-5.457Zm3.246,2.67v3.693h2.117c1.258,0,2.035-.023,2.34-.059a2.1,2.1,0,0,0,1.306-.576,1.684,1.684,0,0,0,.482-1.247,1.747,1.747,0,0,0-.412-1.2,1.93,1.93,0,0,0-1.223-.565c-.317-.035-1.235-.047-2.752-.047Zm0,6.351v4.293h3a13.987,13.987,0,0,0,2.211-.094,1.892,1.892,0,0,0,1.635-2,2.1,2.1,0,0,0-.353-1.235,1.988,1.988,0,0,0-1.012-.729,10.894,10.894,0,0,0-2.87-.235Zm17.865,7.01v-16.031H735v6.316h6.3v-6.316h3.246v16.031h-3.246v-7.01H735v7.01Z" transform="translate(-606.763 -1461.942)" fill="#13befc"/>
      <path id="Path_3015" data-name="Path 3015" d="M1504.346,1886.971l.812,2.541,2.67-.012-2.152,1.564.823,2.54-2.152-1.576-2.164,1.576.835-2.54-2.164-1.564,2.67.012Z" transform="translate(-1361.968 -1711.838)" fill="#fff" fill-rule="evenodd"/>
      <path id="Path_3016" data-name="Path 3016" d="M581.386,1885.323l.823,2.54,2.67-.012-2.164,1.564.835,2.54-2.164-1.576-2.152,1.576.835-2.54-2.164-1.564,2.67.012Z" transform="translate(-524.653 -1710.343)" fill="#fff" fill-rule="evenodd"/>
      <path id="Path_3017" data-name="Path 3017" d="M681.439,1935.905l-1.541-.6.024-1.846-2.835-1.106-1.211,1.376-1.505-.588,5.481-5.986,1.505.588Zm-1.517-3.822.035-2.987-1.964,2.234Zm8.538,2.987,1.294.847a3.384,3.384,0,0,1-1.6,1.47,3.2,3.2,0,0,1-2.105.035,3.26,3.26,0,0,1-2.094-1.682,3.921,3.921,0,0,1-.165-2.975,4.15,4.15,0,0,1,1.752-2.552,3.316,3.316,0,0,1,2.752-.294,3.061,3.061,0,0,1,1.941,1.411,2.917,2.917,0,0,1,.365,1.552l-1.552-.071a1.584,1.584,0,0,0-.282-1.047,1.61,1.61,0,0,0-.906-.612,1.763,1.763,0,0,0-1.482.2,2.961,2.961,0,0,0-1.035,1.741,3.1,3.1,0,0,0-.071,2.105,1.7,1.7,0,0,0,1.129.953,1.491,1.491,0,0,0,1.106-.082,2.249,2.249,0,0,0,.953-1m7.974,1.682,1.376.694a3.319,3.319,0,0,1-1.435,1.635,3.2,3.2,0,0,1-2.082.259,3.31,3.31,0,0,1-2.27-1.447,3.968,3.968,0,0,1-.47-2.94,4.156,4.156,0,0,1,1.47-2.728,3.346,3.346,0,0,1,2.705-.588,3.161,3.161,0,0,1,2.082,1.2,3.049,3.049,0,0,1,.529,1.505l-1.552.094a1.618,1.618,0,0,0-.4-1.011,1.573,1.573,0,0,0-.953-.506,1.771,1.771,0,0,0-1.458.353,2.982,2.982,0,0,0-.847,1.846,3.152,3.152,0,0,0,.153,2.094,1.7,1.7,0,0,0,1.223.835,1.53,1.53,0,0,0,1.094-.2,2.294,2.294,0,0,0,.835-1.094m3.1,3.422.576-7.539,3.211.235a5.727,5.727,0,0,1,1.74.341,1.723,1.723,0,0,1,.823.788,2.2,2.2,0,0,1,.235,1.212,1.941,1.941,0,0,1-.6,1.364,2.332,2.332,0,0,1-1.541.588,3.692,3.692,0,0,1,.765.694,8.471,8.471,0,0,1,.776,1.294l.8,1.541-1.823-.141-.964-1.729a10.66,10.66,0,0,0-.717-1.164,1.2,1.2,0,0,0-.435-.353,2.45,2.45,0,0,0-.765-.141l-.306-.024-.247,3.152Zm1.858-4.234,1.129.082a5.722,5.722,0,0,0,1.376.012.777.777,0,0,0,.447-.282,1.079,1.079,0,0,0,.047-1.188.954.954,0,0,0-.553-.341c-.117-.023-.494-.059-1.105-.106l-1.188-.094Zm6.492,4.834.165-7.574,5.6.118-.024,1.282-4.069-.082-.035,1.682,3.775.071-.023,1.282-3.787-.083-.035,2.058,4.211.082-.024,1.282Zm7.292-7.516,2.787-.212a5.4,5.4,0,0,1,1.435.035,2.483,2.483,0,0,1,1.188.6,3.387,3.387,0,0,1,.812,1.176,5.768,5.768,0,0,1,.388,1.764,5.042,5.042,0,0,1-.106,1.623,3.44,3.44,0,0,1-.706,1.388,2.642,2.642,0,0,1-1.023.682,4.457,4.457,0,0,1-1.341.271l-2.858.212Zm1.635,1.153.376,5,1.129-.082a4.71,4.71,0,0,0,.917-.141,1.559,1.559,0,0,0,.588-.365,1.657,1.657,0,0,0,.341-.765,5.039,5.039,0,0,0,.047-1.388,4.468,4.468,0,0,0-.259-1.329,1.783,1.783,0,0,0-.482-.706,1.5,1.5,0,0,0-.729-.294,6.666,6.666,0,0,0-1.258.023Zm7.339,5.61-.988-7.5,1.517-.2.988,7.5Zm5.481-.858-1.082-6.2-2.211.388-.212-1.258,5.9-1.035.223,1.27-2.2.376,1.082,6.2Zm5.363-1.27-2.082-7.268,5.387-1.541.353,1.223-3.916,1.129.47,1.611,3.634-1.047.353,1.235-3.634,1.035.565,1.976,4.046-1.165.353,1.235Zm4.728-9.209,2.588-1.035a5.509,5.509,0,0,1,1.388-.4,2.67,2.67,0,0,1,1.317.224,3.392,3.392,0,0,1,1.117.87,5.338,5.338,0,0,1,.894,1.576,4.876,4.876,0,0,1,.388,1.576,3.377,3.377,0,0,1-.259,1.541,2.756,2.756,0,0,1-.776.964,4.7,4.7,0,0,1-1.188.647l-2.67,1.058Zm1.894.623,1.858,4.646,1.058-.423a4.461,4.461,0,0,0,.823-.4,1.385,1.385,0,0,0,.459-.529,1.554,1.554,0,0,0,.094-.823,4.816,4.816,0,0,0-.365-1.341,4.611,4.611,0,0,0-.647-1.188,1.712,1.712,0,0,0-.67-.529,1.466,1.466,0,0,0-.788-.071,6.757,6.757,0,0,0-1.188.4Z" transform="translate(-612.168 -1748.293)" fill="#fff"/>
      <text id="P" transform="matrix(0.016, -1, 1, 0.016, 10.813, 99.586)" fill="#fff" font-size="7" font-family="Arial-BoldMT, Arial" font-weight="700"><tspan x="0" y="0">P</tspan></text>
      <text id="A" transform="matrix(0.134, -0.991, 0.991, 0.134, 12.889, 90.487)" fill="#fff" font-size="8" font-family="Arial-BoldMT, Arial" font-weight="700"><tspan x="0" y="0">A</tspan></text>
      <text id="T" transform="matrix(0.278, -0.961, 0.961, 0.277, 14.469, 80.346)" fill="#fff" font-size="7" font-family="Arial-BoldMT, Arial" font-weight="700"><tspan x="0" y="0">T</tspan></text>
      <text id="I" transform="matrix(0.325, -0.946, 0.946, 0.323, 16.071, 71.033)" fill="#fff" font-size="5" font-family="Arial-BoldMT, Arial" font-weight="700"><tspan x="0" y="0">I</tspan></text>
      <text id="E" transform="matrix(0.417, -0.909, 0.91, 0.416, 19.26, 65.763)" fill="#fff" font-size="7" font-family="Arial-BoldMT, Arial" font-weight="700"><tspan x="0" y="0">E</tspan></text>
      <text id="N" transform="matrix(0.533, -0.846, 0.846, 0.533, 24.211, 57.074)" fill="#fff" font-size="8" font-family="Arial-BoldMT, Arial" font-weight="700"><tspan x="0" y="0">N</tspan></text>
      <text id="T-2" data-name="T" transform="translate(29.21 47.783) rotate(-51.985)" fill="#fff" font-size="7" font-family="Arial-BoldMT, Arial" font-weight="700"><tspan x="0" y="0">T</tspan></text>
      <text id="_" data-name=" " transform="translate(32.827 42.029) rotate(-48.692)" fill="#fff" font-size="5" font-family="Arial-BoldMT, Arial" font-weight="700"><tspan x="0" y="0"> </tspan></text>
      <text id="S" transform="matrix(0.718, -0.696, 0.696, 0.718, 37.309, 37.909)" fill="#fff" font-size="7" font-family="Arial-BoldMT, Arial" font-weight="700"><tspan x="0" y="0">S</tspan></text>
      <text id="A-2" data-name="A" transform="translate(45.263 32.116) rotate(-38.215)" fill="#fff" font-size="8" font-family="Arial-BoldMT, Arial" font-weight="700"><tspan x="0" y="0">A</tspan></text>
      <text id="F" transform="translate(53.562 24.703) rotate(-29.528)" fill="#fff" font-size="7" font-family="Arial-BoldMT, Arial" font-weight="700"><tspan x="0" y="0">F</tspan></text>
      <text id="E-2" data-name="E" transform="matrix(0.911, -0.412, 0.414, 0.91, 61.963, 20.332)" fill="#fff" font-size="7" font-family="Arial-BoldMT, Arial" font-weight="700"><tspan x="0" y="0">E</tspan></text>
      <text id="T-3" data-name="T" transform="matrix(0.952, -0.305, 0.306, 0.952, 71.165, 16.29)" fill="#fff" font-size="7" font-family="Arial-BoldMT, Arial" font-weight="700"><tspan x="0" y="0">T</tspan></text>
      <text id="Y" transform="matrix(0.986, -0.166, 0.167, 0.986, 80.499, 13.354)" fill="#fff" font-size="7" font-family="Arial-BoldMT, Arial" font-weight="700"><tspan x="0" y="0">Y</tspan></text>
      <text id="_2" data-name=" " transform="matrix(0.991, -0.135, 0.136, 0.991, 87.175, 11.3)" fill="#fff" font-size="5" font-family="Arial-BoldMT, Arial" font-weight="700"><tspan x="0" y="0"> </tspan></text>
      <text id="_3" data-name="&amp;" transform="matrix(1, -0.017, 0.017, 1, 93.043, 12.206)" fill="#fff" font-size="8" font-family="Arial-BoldMT, Arial" font-weight="700"><tspan x="0" y="0">&amp;</tspan></text>
      <text id="Q" transform="matrix(0.991, 0.135, -0.136, 0.991, 106.991, 11.237)" fill="#fff" font-size="7" font-family="Arial-BoldMT, Arial" font-weight="700"><tspan x="0" y="0">Q</tspan></text>
      <text id="U" transform="matrix(0.975, 0.223, -0.224, 0.975, 117.664, 13.664)" fill="#fff" font-size="8" font-family="Arial-BoldMT, Arial" font-weight="700"><tspan x="0" y="0">U</tspan></text>
      <text id="A-3" data-name="A" transform="matrix(0.933, 0.359, -0.361, 0.933, 128.244, 16.24)" fill="#fff" font-size="8" font-family="Arial-BoldMT, Arial" font-weight="700"><tspan x="0" y="0">A</tspan></text>
      <text id="L" transform="matrix(0.886, 0.464, -0.464, 0.886, 138.514, 19.357)" fill="#fff" font-size="7" font-family="Arial-BoldMT, Arial" font-weight="700"><tspan x="0" y="0">L</tspan></text>
      <text id="I-2" data-name="I" transform="matrix(0.844, 0.536, -0.536, 0.844, 147.428, 22.885)" fill="#fff" font-size="5" font-family="Arial-BoldMT, Arial" font-weight="700"><tspan x="0" y="0">I</tspan></text>
      <text id="T-4" data-name="T" transform="translate(151.773 26.753) rotate(38.215)" fill="#fff" font-size="7" font-family="Arial-BoldMT, Arial" font-weight="700"><tspan x="0" y="0">T</tspan></text>
      <text id="Y-2" data-name="Y" transform="translate(159.434 32.606) rotate(43.503)" fill="#fff" font-size="7" font-family="Arial-BoldMT, Arial" font-weight="700"><tspan x="0" y="0">Y</tspan></text>
      <text id="O" transform="translate(168.61 41.806) rotate(51.985)" fill="#fff" font-size="7" font-family="Arial-BoldMT, Arial" font-weight="700"><tspan x="0" y="0">O</tspan></text>
      <text id="F-2" data-name="F" transform="matrix(0.542, 0.84, -0.84, 0.542, 175.14, 50.87)" fill="#fff" font-size="7" font-family="Arial-BoldMT, Arial" font-weight="700"><tspan x="0" y="0">F</tspan></text>
      <text id="C" transform="matrix(0.411, 0.912, -0.912, 0.409, 180.493, 62.329)" fill="#fff" font-size="8" font-family="Arial-BoldMT, Arial" font-weight="700"><tspan x="0" y="0">C</tspan></text>
      <text id="A-4" data-name="A" transform="matrix(0.278, 0.961, -0.961, 0.277, 184.492, 72.163)" fill="#fff" font-size="8" font-family="Arial-BoldMT, Arial" font-weight="700"><tspan x="0" y="0">A</tspan></text>
      <text id="R" transform="matrix(0.167, 0.986, -0.986, 0.166, 187.394, 82.301)" fill="#fff" font-size="8" font-family="Arial-BoldMT, Arial" font-weight="700"><tspan x="0" y="0">R</tspan></text>
      <text id="E-3" data-name="E" transform="matrix(0.016, 1, -1, 0.016, 189.84, 92.889)" fill="#fff" font-size="7" font-family="Arial-BoldMT, Arial" font-weight="700"><tspan x="0" y="0">E</tspan></text>
      <path id="Path_3018" data-name="Path 3018" d="M83.124,166.915l-7.574-.129.047-2.446a8.5,8.5,0,0,1,.141-1.811,1.923,1.923,0,0,1,.764-1.07,2.334,2.334,0,0,1,1.482-.423,2.657,2.657,0,0,1,1.164.271,2.094,2.094,0,0,1,.729.659,2.286,2.286,0,0,1,.353.8,9.353,9.353,0,0,1,.082,1.576l-.024,1,2.858.047Zm-6.269-1.635,2.164.035.012-.835a3.557,3.557,0,0,0-.106-1.2.889.889,0,0,0-.365-.482,1.06,1.06,0,0,0-.588-.188.965.965,0,0,0-.682.235,1.038,1.038,0,0,0-.353.612,7.866,7.866,0,0,0-.071,1.094ZM85.394,151.3l-.224,1.635-1.8.412-.4,3.011,1.623.847-.223,1.611-7.1-3.928.223-1.611Zm-3.352,2.364-2.917.67,2.635,1.388Zm5.293-6.633-6.045-1.752-.623,2.152-1.223-.353,1.67-5.763,1.223.353-.623,2.141,6.045,1.753Zm2.117-7.069-7.163-2.47.506-1.447,7.151,2.458Zm2.094-5.316-6.869-3.152,2.329-5.093,1.164.541-1.694,3.693,1.529.706,1.576-3.446,1.153.529-1.576,3.446,1.87.859,1.752-3.834,1.164.529Zm4.21-8.715-6.4-4.046.788-1.258,5.951.082L91.816,118l.753-1.2,6.4,4.034-.811,1.294-5.845-.059,4.2,2.658Zm6.763-9.962-4.951-3.881-1.376,1.764-1.012-.788,3.7-4.728,1.011.788-1.376,1.752,4.952,3.881Zm4.775-9.268.964-1.141a1.9,1.9,0,0,0,1.153.412,1.647,1.647,0,0,0,1.035-.517,1.706,1.706,0,0,0,.588-1,.929.929,0,0,0-.235-.776.743.743,0,0,0-.435-.224,1.287,1.287,0,0,0-.623.141c-.165.082-.541.282-1.106.612a4.032,4.032,0,0,1-1.752.647,1.99,1.99,0,0,1-2.082-1.623,2.148,2.148,0,0,1,.141-1.2,3.729,3.729,0,0,1,.894-1.223,3.19,3.19,0,0,1,1.976-1.035,2.237,2.237,0,0,1,1.705.694l-1.07,1.094a1.242,1.242,0,0,0-.882-.306,1.5,1.5,0,0,0-.87.47,1.752,1.752,0,0,0-.553.917.566.566,0,0,0,.153.506.6.6,0,0,0,.482.176,3.8,3.8,0,0,0,1.364-.6,7.174,7.174,0,0,1,1.564-.753,2.17,2.17,0,0,1,1.129-.023,2.245,2.245,0,0,1,1.059.659,2.182,2.182,0,0,1,.588,1.129,2.242,2.242,0,0,1-.153,1.317,4.345,4.345,0,0,1-.988,1.341,3.308,3.308,0,0,1-2.046,1.047,2.856,2.856,0,0,1-2-.741m14.584-9.221L120.584,98.5l-1.576-.953-2.387,1.87.564,1.741-1.27,1L113.551,94.4l1.282-1Zm-4.046-.635-2.564-1.553.929,2.834Zm7.045-1.188-3.717-6.6,4.528-2.552.623,1.117-3.187,1.8.882,1.564,2.764-1.553.623,1.106L124.63,92.1l1.576,2.8Zm8-4.375-3.117-6.9,5.1-2.305.529,1.164-3.717,1.682.694,1.529,3.446-1.564.529,1.176L132.9,87.609l.847,1.87,3.834-1.741.529,1.164Zm10.632-4.246-1.929-5.987-2.129.682-.388-1.223,5.716-1.823.388,1.211-2.117.682,1.917,5.986Zm9.056-2.458-.529-3.14-3.47-3.858,1.776-.294,2.258,2.658,1.223-3.246,1.729-.294-2,4.787.529,3.14Zm16.983-2.693-.859,1.141a5.908,5.908,0,0,1-1.258-.847,3.3,3.3,0,0,1-.964.623,3.677,3.677,0,0,1-1.223.212,2.676,2.676,0,0,1-2.129-.764,2,2,0,0,1-.576-1.4,2.114,2.114,0,0,1,.412-1.317,3.421,3.421,0,0,1,1.282-1.035,3.623,3.623,0,0,1-.6-.87,1.679,1.679,0,0,1-.212-.776,1.457,1.457,0,0,1,.529-1.176,2.3,2.3,0,0,1,1.553-.506,2.181,2.181,0,0,1,1.541.471,1.593,1.593,0,0,1,.576,1.211,1.634,1.634,0,0,1-.259.882,3.621,3.621,0,0,1-1.082.953l1.07,1.376a3.951,3.951,0,0,0,.306-.859l1.317.27a9.253,9.253,0,0,1-.329,1.035,2.332,2.332,0,0,1-.306.541,4.849,4.849,0,0,0,.647.482,4.044,4.044,0,0,0,.565.353m-4.011-4.058.376-.306a.873.873,0,0,0,.423-.67.609.609,0,0,0-.212-.47.8.8,0,0,0-.565-.188.769.769,0,0,0-.541.176.54.54,0,0,0-.188.412,1.191,1.191,0,0,0,.341.647Zm-.541,1.588a2.089,2.089,0,0,0-.741.623,1.407,1.407,0,0,0-.235.741,1.019,1.019,0,0,0,.329.753,1.1,1.1,0,0,0,.823.294,1.79,1.79,0,0,0,.647-.153,2.844,2.844,0,0,0,.67-.459Zm17.265,3.27a4.787,4.787,0,0,0,1.129.8l-.706,1.011a3.473,3.473,0,0,1-.635-.376c-.035-.035-.341-.294-.906-.8a4.2,4.2,0,0,1-1.682.094,3.633,3.633,0,0,1-2.576-1.388,4.044,4.044,0,0,1-.588-3,3.971,3.971,0,0,1,1.376-2.729,3.557,3.557,0,0,1,2.8-.659,3.514,3.514,0,0,1,2.505,1.376,4.015,4.015,0,0,1,.588,3,4.57,4.57,0,0,1-.506,1.67,3.159,3.159,0,0,1-.8,1m-1.094-1.012a2.235,2.235,0,0,0,.541-.776,3.88,3.88,0,0,0,.306-1.094,2.846,2.846,0,0,0-.317-2.023,1.9,1.9,0,0,0-1.411-.847,1.956,1.956,0,0,0-1.588.447,2.9,2.9,0,0,0-.835,1.87,2.993,2.993,0,0,0,.306,2.046,1.917,1.917,0,0,0,1.364.847,1.635,1.635,0,0,0,.635-.024,4.2,4.2,0,0,0-.87-.588l.553-.823a5.048,5.048,0,0,1,1.317.964m7.4-4.575,1.494.341-.917,4a9.835,9.835,0,0,0-.224,1.247,1.271,1.271,0,0,0,.282.823,1.641,1.641,0,0,0,.917.494,1.479,1.479,0,0,0,1-.035,1.012,1.012,0,0,0,.529-.553A7.836,7.836,0,0,0,192,82.176l.929-4.093,1.494.341-.882,3.881a9.991,9.991,0,0,1-.553,1.858,2.175,2.175,0,0,1-.647.823,2.3,2.3,0,0,1-1,.4,3.843,3.843,0,0,1-1.47-.094,4.119,4.119,0,0,1-1.541-.612,2.343,2.343,0,0,1-.717-.823,2.255,2.255,0,0,1-.235-.917,9.237,9.237,0,0,1,.282-1.905ZM203.3,89.456l-1.541-.588.012-1.846-2.834-1.094-1.211,1.388-1.505-.588,5.457-6.01,1.505.588Zm-1.541-3.811.023-2.987L199.831,84.9Zm4.74,5.269,3.47-6.657,1.364.706-2.881,5.528,3.364,1.752-.588,1.129Zm7.845,4.34,4.046-6.4,1.294.811-4.034,6.4Zm6.21,4,3.881-4.952-1.764-1.388.788-1,4.728,3.693-.788,1.011-1.764-1.376-3.87,4.952Zm7.174,6.069,2.188-2.305,1-5.093,1.305,1.235-.764,3.4,3.328-.976,1.27,1.211-5.034,1.282-2.176,2.305Zm10.091,4.928a4.909,4.909,0,0,1,1.741-.917,3.49,3.49,0,0,1,1.258-.094,3.014,3.014,0,0,1,1.141.353,4.166,4.166,0,0,1,1.247,1.106,3.563,3.563,0,0,1,.835,2.74A4.656,4.656,0,0,1,239.5,117a3.485,3.485,0,0,1-2.458-1.458,3.567,3.567,0,0,1-.847-2.752,3.941,3.941,0,0,1,1.623-2.54m1.011,1.211a2.882,2.882,0,0,0-1.164,1.67,2.033,2.033,0,0,0,1.846,2.376,3.626,3.626,0,0,0,3.1-2.4,1.994,1.994,0,0,0-.435-1.6,1.943,1.943,0,0,0-1.458-.8,2.847,2.847,0,0,0-1.894.753m2.74,10.162,6.351-4.116,2.835,4.363-1.082.694-1.988-3.07-1.505.976,1.717,2.658-1.07.694-1.729-2.658-2.693,1.741Zm10.373,13.784.188,1.529a3.284,3.284,0,0,1-2.152-.271,3.238,3.238,0,0,1-1.388-1.576,3.287,3.287,0,0,1-.082-2.682,3.894,3.894,0,0,1,2.176-2.047,4.126,4.126,0,0,1,3.07-.318,3.306,3.306,0,0,1,2.011,1.905,3.113,3.113,0,0,1,.188,2.387,2.828,2.828,0,0,1-.964,1.282l-.941-1.223a1.645,1.645,0,0,0,.612-.894,1.589,1.589,0,0,0-.118-1.082,1.715,1.715,0,0,0-1.117-1,2.9,2.9,0,0,0-1.988.329,3.2,3.2,0,0,0-1.658,1.305,1.721,1.721,0,0,0,0,1.482,1.559,1.559,0,0,0,.788.788,2.27,2.27,0,0,0,1.376.082m1.211,12.831-.459-1.588,1.47-1.105-.835-2.917-1.835-.118-.447-1.564,8.08.717.459,1.553Zm2.105-3.528,2.4-1.788-2.976-.2Zm-1.494,6.939,7.457-1.27.541,3.176a5.776,5.776,0,0,1,.094,1.776,1.816,1.816,0,0,1-.576.988,2.251,2.251,0,0,1-1.117.529,2.064,2.064,0,0,1-1.47-.259,2.426,2.426,0,0,1-.941-1.353,3.463,3.463,0,0,1-.482.906,10.025,10.025,0,0,1-1.07,1.058l-1.305,1.153-.306-1.8,1.447-1.352a9.225,9.225,0,0,0,.964-.988,1.316,1.316,0,0,0,.235-.506,2.761,2.761,0,0,0-.047-.776l-.059-.306-3.117.529Zm4.552.776.188,1.117a6.16,6.16,0,0,0,.329,1.341.735.735,0,0,0,.388.365.957.957,0,0,0,.588.059.868.868,0,0,0,.764-.917,11.015,11.015,0,0,0-.165-1.106l-.188-1.176Zm-3.034,9.374,7.563-.118.094,5.6-1.282.023-.059-4.069-1.682.023.059,3.787-1.282.012-.059-3.775-2.047.035.071,4.211-1.282.023Z" transform="translate(-68.908 -68.136)" fill="#fff"/>
      <path id="Path_3019" data-name="Path 3019" d="M681.439,1935.905l-1.541-.6.024-1.846-2.835-1.106-1.211,1.376-1.505-.588,5.481-5.986,1.505.588Zm-1.517-3.822.035-2.987-1.964,2.234Zm8.538,2.987,1.294.847a3.384,3.384,0,0,1-1.6,1.47,3.2,3.2,0,0,1-2.105.035,3.26,3.26,0,0,1-2.094-1.682,3.921,3.921,0,0,1-.165-2.975,4.15,4.15,0,0,1,1.752-2.552,3.316,3.316,0,0,1,2.752-.294,3.061,3.061,0,0,1,1.941,1.411,2.917,2.917,0,0,1,.365,1.552l-1.552-.071a1.584,1.584,0,0,0-.282-1.047,1.61,1.61,0,0,0-.906-.612,1.763,1.763,0,0,0-1.482.2,2.961,2.961,0,0,0-1.035,1.741,3.1,3.1,0,0,0-.071,2.105,1.7,1.7,0,0,0,1.129.953,1.491,1.491,0,0,0,1.106-.082,2.249,2.249,0,0,0,.953-1m7.974,1.682,1.376.694a3.319,3.319,0,0,1-1.435,1.635,3.2,3.2,0,0,1-2.082.259,3.31,3.31,0,0,1-2.27-1.447,3.968,3.968,0,0,1-.47-2.94,4.156,4.156,0,0,1,1.47-2.728,3.346,3.346,0,0,1,2.705-.588,3.161,3.161,0,0,1,2.082,1.2,3.049,3.049,0,0,1,.529,1.505l-1.552.094a1.618,1.618,0,0,0-.4-1.011,1.573,1.573,0,0,0-.953-.506,1.771,1.771,0,0,0-1.458.353,2.982,2.982,0,0,0-.847,1.846,3.152,3.152,0,0,0,.153,2.094,1.7,1.7,0,0,0,1.223.835,1.53,1.53,0,0,0,1.094-.2,2.294,2.294,0,0,0,.835-1.094m3.1,3.422.576-7.539,3.211.235a5.727,5.727,0,0,1,1.74.341,1.723,1.723,0,0,1,.823.788,2.2,2.2,0,0,1,.235,1.212,1.941,1.941,0,0,1-.6,1.364,2.332,2.332,0,0,1-1.541.588,3.692,3.692,0,0,1,.765.694,8.471,8.471,0,0,1,.776,1.294l.8,1.541-1.823-.141-.964-1.729a10.66,10.66,0,0,0-.717-1.164,1.2,1.2,0,0,0-.435-.353,2.45,2.45,0,0,0-.765-.141l-.306-.024-.247,3.152Zm1.858-4.234,1.129.082a5.722,5.722,0,0,0,1.376.012.777.777,0,0,0,.447-.282,1.079,1.079,0,0,0,.047-1.188.954.954,0,0,0-.553-.341c-.117-.023-.494-.059-1.105-.106l-1.188-.094Zm6.492,4.834.165-7.574,5.6.118-.024,1.282-4.069-.082-.035,1.682,3.775.071-.023,1.282-3.787-.083-.035,2.058,4.211.082-.024,1.282Zm7.292-7.516,2.787-.212a5.4,5.4,0,0,1,1.435.035,2.483,2.483,0,0,1,1.188.6,3.387,3.387,0,0,1,.812,1.176,5.768,5.768,0,0,1,.388,1.764,5.042,5.042,0,0,1-.106,1.623,3.44,3.44,0,0,1-.706,1.388,2.642,2.642,0,0,1-1.023.682,4.457,4.457,0,0,1-1.341.271l-2.858.212Zm1.635,1.153.376,5,1.129-.082a4.71,4.71,0,0,0,.917-.141,1.559,1.559,0,0,0,.588-.365,1.657,1.657,0,0,0,.341-.765,5.039,5.039,0,0,0,.047-1.388,4.468,4.468,0,0,0-.259-1.329,1.783,1.783,0,0,0-.482-.706,1.5,1.5,0,0,0-.729-.294,6.666,6.666,0,0,0-1.258.023Zm7.339,5.61-.988-7.5,1.517-.2.988,7.5Zm5.481-.858-1.082-6.2-2.211.388-.212-1.258,5.9-1.035.223,1.27-2.2.376,1.082,6.2Zm5.363-1.27-2.082-7.268,5.387-1.541.353,1.223-3.916,1.129.47,1.611,3.634-1.047.353,1.235-3.634,1.035.565,1.976,4.046-1.165.353,1.235Zm4.728-9.209,2.588-1.035a5.509,5.509,0,0,1,1.388-.4,2.67,2.67,0,0,1,1.317.224,3.392,3.392,0,0,1,1.117.87,5.338,5.338,0,0,1,.894,1.576,4.876,4.876,0,0,1,.388,1.576,3.377,3.377,0,0,1-.259,1.541,2.756,2.756,0,0,1-.776.964,4.7,4.7,0,0,1-1.188.647l-2.67,1.058Zm1.894.623,1.858,4.646,1.058-.423a4.461,4.461,0,0,0,.823-.4,1.385,1.385,0,0,0,.459-.529,1.554,1.554,0,0,0,.094-.823,4.816,4.816,0,0,0-.365-1.341,4.611,4.611,0,0,0-.647-1.188,1.712,1.712,0,0,0-.67-.529,1.466,1.466,0,0,0-.788-.071,6.757,6.757,0,0,0-1.188.4Z" transform="translate(-612.168 -1748.293)" fill="#fff"/>
    </g>
  </g>
</svg>
