<svg xmlns="http://www.w3.org/2000/svg" xmlns:xlink="http://www.w3.org/1999/xlink" width="58.796" height="58.784" viewBox="0 0 58.796 58.784">
  <defs>
    <linearGradient id="linear-gradient" x1="0.83" y1="0.1" x2="0.354" y2="0.914" gradientUnits="objectBoundingBox">
      <stop offset="0" stop-color="#f59302"/>
      <stop offset="1" stop-color="#f35906"/>
    </linearGradient>
    <clipPath id="clip-path">
      <rect id="Rectangle_253" data-name="Rectangle 253" width="58.796" height="58.784" fill="url(#linear-gradient)"/>
    </clipPath>
  </defs>
  <g id="Group_490" data-name="Group 490" transform="translate(-507 -5807.15)">
    <g id="Group_489" data-name="Group 489" transform="translate(507 5807.15)">
      <g id="Group_488" data-name="Group 488" transform="translate(0 0)" clip-path="url(#clip-path)">
        <path id="Path_1810" data-name="Path 1810" d="M57.746,20.236h-11.1V9.138a1.05,1.05,0,0,0-1.05-1.05h-7.05V3.465A3.468,3.468,0,0,0,35.083,0H23.713a3.468,3.468,0,0,0-3.464,3.465V8.088H13.2a1.05,1.05,0,0,0-1.05,1.05v11.1H1.05A1.05,1.05,0,0,0,0,21.286V57.733a1.05,1.05,0,0,0,1.05,1.05s42.821,0,56.7,0a1.05,1.05,0,0,0,1.05-1.05V21.286a1.05,1.05,0,0,0-1.05-1.05M22.349,3.465A1.365,1.365,0,0,1,23.713,2.1H35.083a1.365,1.365,0,0,1,1.364,1.365V14.822a1.365,1.365,0,0,1-1.364,1.365H23.713a1.365,1.365,0,0,1-1.364-1.365ZM2.1,22.336H12.149V56.683H2.1ZM14.249,10.187h6v4.634a3.468,3.468,0,0,0,3.464,3.465H35.083a3.468,3.468,0,0,0,3.464-3.465V10.187h6c0,7.347,0,38.552,0,46.5H37.269V42.518a1.05,1.05,0,0,0-1.05-1.05H22.577a1.05,1.05,0,0,0-1.05,1.05V56.683H14.249Zm9.378,33.38h4.722V56.683H23.626Zm6.821,0h4.722V56.683H30.448ZM56.7,56.683H46.647V22.336H56.7Z" transform="translate(0 0)" fill="url(#linear-gradient)"/>
        <path id="Path_1811" data-name="Path 1811" d="M47.134,32.363h4.473a1.05,1.05,0,0,0,1.05-1.05V25.061a1.05,1.05,0,0,0-1.05-1.05H47.134a1.051,1.051,0,0,0-1.05,1.05v6.252a1.051,1.051,0,0,0,1.05,1.05m1.05-6.252h2.373v4.151H48.184Z" transform="translate(2.301 1.199)" fill="url(#linear-gradient)"/>
        <path id="Path_1812" data-name="Path 1812" d="M47.134,43.054h4.473A1.05,1.05,0,0,0,52.657,42V35.753a1.05,1.05,0,0,0-1.05-1.05H47.134a1.051,1.051,0,0,0-1.05,1.05V42a1.051,1.051,0,0,0,1.05,1.05m1.05-6.251h2.373v4.151H48.184Z" transform="translate(2.301 1.733)" fill="url(#linear-gradient)"/>
        <path id="Path_1813" data-name="Path 1813" d="M9.178,24.011H4.7a1.05,1.05,0,0,0-1.05,1.05v6.251a1.05,1.05,0,0,0,1.05,1.05H9.178a1.05,1.05,0,0,0,1.05-1.05V25.061a1.05,1.05,0,0,0-1.05-1.05M8.129,30.262H5.755V26.111H8.129Z" transform="translate(0.182 1.199)" fill="url(#linear-gradient)"/>
        <path id="Path_1814" data-name="Path 1814" d="M9.178,34.7H4.7a1.05,1.05,0,0,0-1.05,1.05V42a1.05,1.05,0,0,0,1.05,1.05H9.178A1.05,1.05,0,0,0,10.228,42V35.753a1.05,1.05,0,0,0-1.05-1.05M8.129,40.954H5.755V36.8H8.129Z" transform="translate(0.182 1.733)" fill="url(#linear-gradient)"/>
        <path id="Path_1815" data-name="Path 1815" d="M17.412,27.708h8.031a1.049,1.049,0,0,0,1.05-1.05V20.407a1.05,1.05,0,0,0-1.05-1.05H17.412a1.05,1.05,0,0,0-1.05,1.05v6.251a1.05,1.05,0,0,0,1.05,1.05m1.05-6.251h5.931v4.151H18.462Z" transform="translate(0.817 0.967)" fill="url(#linear-gradient)"/>
        <path id="Path_1816" data-name="Path 1816" d="M31.039,27.708H39.07a1.05,1.05,0,0,0,1.05-1.05V20.407a1.05,1.05,0,0,0-1.05-1.05H31.039a1.05,1.05,0,0,0-1.05,1.05v6.251a1.049,1.049,0,0,0,1.05,1.05m1.05-6.251H38.02v4.151H32.089Z" transform="translate(1.497 0.967)" fill="url(#linear-gradient)"/>
        <path id="Path_1817" data-name="Path 1817" d="M25.443,37.778a1.05,1.05,0,0,0,1.05-1.05V30.476a1.05,1.05,0,0,0-1.05-1.05H17.412a1.051,1.051,0,0,0-1.05,1.05v6.252a1.05,1.05,0,0,0,1.05,1.05Zm-6.981-6.252h5.931v4.152H18.462Z" transform="translate(0.817 1.469)" fill="url(#linear-gradient)"/>
        <path id="Path_1818" data-name="Path 1818" d="M31.039,37.778H39.07a1.05,1.05,0,0,0,1.05-1.05V30.476a1.051,1.051,0,0,0-1.05-1.05H31.039a1.05,1.05,0,0,0-1.05,1.05v6.252a1.05,1.05,0,0,0,1.05,1.05m1.05-6.252H38.02v4.152H32.089Z" transform="translate(1.497 1.469)" fill="url(#linear-gradient)"/>
      </g>
    </g>
  </g>
</svg>
