<svg id="Group_485" data-name="Group 485" xmlns="http://www.w3.org/2000/svg" xmlns:xlink="http://www.w3.org/1999/xlink" width="63.58" height="69.846" viewBox="0 0 63.58 69.846">
  <defs>
    <linearGradient id="linear-gradient" x1="0.5" x2="0.5" y2="1" gradientUnits="objectBoundingBox">
      <stop offset="0" stop-color="#f59302"/>
      <stop offset="1" stop-color="#f35906"/>
    </linearGradient>
    <clipPath id="clip-path">
      <rect id="Rectangle_251" data-name="Rectangle 251" width="63.58" height="69.846" fill="url(#linear-gradient)"/>
    </clipPath>
    <linearGradient id="linear-gradient-7" x1="0.911" y1="0.111" x2="0.464" y2="0.943" xlink:href="#linear-gradient"/>
  </defs>
  <g id="Group_484" data-name="Group 484" transform="translate(0 0)" clip-path="url(#clip-path)">
    <path id="Path_1799" data-name="Path 1799" d="M3.905,16.791l.033.019,3.427,1.978a1.059,1.059,0,0,0,1.058-1.833L5,14.977a1.058,1.058,0,0,0-1.092,1.814" transform="translate(-0.76 -3.32)" fill="url(#linear-gradient)"/>
    <path id="Path_1800" data-name="Path 1800" d="M48.994,17.509a1.051,1.051,0,0,0,.528-.142l3.426-1.978a1.059,1.059,0,1,0-1.01-1.861c-.016.009-.033.018-.048.028l-3.426,1.978a1.059,1.059,0,0,0,.53,1.975" transform="translate(-10.735 -3.001)" fill="url(#linear-gradient)"/>
    <path id="Path_1801" data-name="Path 1801" d="M28.531,6.075a1.059,1.059,0,0,0,1.059-1.059V1.059a1.059,1.059,0,0,0-2.117,0V5.016a1.059,1.059,0,0,0,1.059,1.059" transform="translate(-6.152 0)" fill="url(#linear-gradient)"/>
    <path id="Path_1802" data-name="Path 1802" d="M39.688,8.783A1.058,1.058,0,0,0,41.133,8.4v0l1.978-3.426A1.059,1.059,0,0,0,41.279,3.91L39.3,7.336a1.059,1.059,0,0,0,.387,1.447" transform="translate(-8.769 -0.761)" fill="url(#linear-gradient)"/>
    <path id="Path_1803" data-name="Path 1803" d="M15.576,9.211a1.058,1.058,0,1,0,1.832-1.059L15.43,4.726A1.058,1.058,0,0,0,13.6,5.784Z" transform="translate(-3.013 -0.94)" fill="url(#linear-gradient)"/>
    <path id="Path_1804" data-name="Path 1804" d="M65.149,23.84H62v-3.1a1.059,1.059,0,0,0-1.059-1.059H38.436a13.934,13.934,0,0,0-12.828-8c-7.651,0-13.875,5.8-13.875,12.928a12.256,12.256,0,0,0,2.455,7.347c2.331,3.141,2.445,5.407,2.445,9.132v2.768a3.832,3.832,0,0,0,3.475,3.81v1.1a3.2,3.2,0,0,0,3.2,3.2H24.57V67.892a4.578,4.578,0,0,0,4.57,4.569H65.15A1.059,1.059,0,0,0,66.208,71.4V24.9a1.059,1.059,0,0,0-1.059-1.059M38.711,28.873h12.4v4.9H35.87a14.025,14.025,0,0,1,1.157-1.814,12.537,12.537,0,0,0,1.684-3.084M15.885,30.7a10.157,10.157,0,0,1-2.036-6.086c0-5.962,5.276-10.812,11.759-10.812s11.76,4.85,11.76,10.812A10.154,10.154,0,0,1,35.327,30.7,14.572,14.572,0,0,0,33.434,34a.7.7,0,0,0-.026.067,16.248,16.248,0,0,0-.935,5.963H18.743c-.048-3.5-.425-6.062-2.858-9.335m4.574,14.871a1.711,1.711,0,0,1-1.71-1.707V42.152H32.464v1.707a1.711,1.711,0,0,1-1.707,1.707Zm2.847,4.28a1.087,1.087,0,0,1-1.081-1.082V47.683H28.99v1.082a1.086,1.086,0,0,1-1.082,1.082Zm3.377,2.116h1.225a3.2,3.2,0,0,0,3.2-3.2v-1.1a3.831,3.831,0,0,0,3.476-3.81V41.09a19.876,19.876,0,0,1,.451-5.2h17.14a1.059,1.059,0,0,0,1.059-1.058V27.817a1.059,1.059,0,0,0-1.059-1.059H39.291a12.071,12.071,0,0,0-.139-4.957H59.887V63.321H29.137a4.535,4.535,0,0,0-2.453.718Zm2.454,18.382a2.453,2.453,0,0,1,0-4.906H60.946A1.059,1.059,0,0,0,62,64.38V25.957H64.09V64.38l0,5.965Z" transform="translate(-2.627 -2.616)" fill="url(#linear-gradient-7)"/>
    <path id="Path_1805" data-name="Path 1805" d="M43.971,65.335H57.842a1.059,1.059,0,0,0,.057-2.116H44.028a1.059,1.059,0,0,0-.057,2.116" transform="translate(-9.616 -14.157)" fill="url(#linear-gradient)"/>
    <path id="Path_1806" data-name="Path 1806" d="M57.85,68.559H44.036a1.059,1.059,0,0,0,0,2.117H57.85a1.059,1.059,0,0,0,0-2.117" transform="translate(-9.624 -15.353)" fill="url(#linear-gradient)"/>
    <path id="Path_1807" data-name="Path 1807" d="M6.1,30.133a1.059,1.059,0,0,0-1.059-1.058H1.087a1.059,1.059,0,0,0-.057,2.116H5.045A1.059,1.059,0,0,0,6.1,30.133" transform="translate(0 -6.511)" fill="url(#linear-gradient)"/>
    <path id="Path_1808" data-name="Path 1808" d="M8.192,40.687h0L4.763,42.665A1.059,1.059,0,1,0,5.824,44.5L9.251,42.52a1.059,1.059,0,0,0-1.059-1.833" transform="translate(-0.948 -9.082)" fill="url(#linear-gradient)"/>
  </g>
</svg>
