<svg id="Group_495" data-name="Group 495" xmlns="http://www.w3.org/2000/svg" xmlns:xlink="http://www.w3.org/1999/xlink" width="58.796" height="73.396" viewBox="0 0 58.796 73.396">
  <defs>
    <linearGradient id="linear-gradient" x1="0.929" y1="0.073" x2="0.384" y2="0.916" gradientUnits="objectBoundingBox">
      <stop offset="0" stop-color="#f59302"/>
      <stop offset="1" stop-color="#f35906"/>
    </linearGradient>
    <clipPath id="clip-path">
      <rect id="Rectangle_255" data-name="Rectangle 255" width="58.796" height="73.396" fill="url(#linear-gradient)"/>
    </clipPath>
  </defs>
  <g id="Group_494" data-name="Group 494" clip-path="url(#clip-path)">
    <path id="Path_1821" data-name="Path 1821" d="M33.286,23.575l-2.645-6.66a1.513,1.513,0,0,0-2.811,0l-2.645,6.66-7.152.457a1.512,1.512,0,0,0-.869,2.672l5.516,4.574-1.774,6.943a1.512,1.512,0,0,0,2.274,1.655l6.053-3.833,6.054,3.833a1.512,1.512,0,0,0,2.274-1.652l-1.775-6.942L41.3,26.705a1.512,1.512,0,0,0-.869-2.672Zm-.163,5.987a1.512,1.512,0,0,0-.5,1.538l1.069,4.182-3.647-2.309a1.513,1.513,0,0,0-1.617,0l-3.647,2.309L25.85,31.1a1.51,1.51,0,0,0-.5-1.538l-3.323-2.756,4.308-.276a1.511,1.511,0,0,0,1.3-.95l1.593-4.012,1.593,4.012a1.511,1.511,0,0,0,1.3.95l4.307.276Zm23.8-5.011a10.085,10.085,0,0,1-1.248-2.4,9.7,9.7,0,0,1-.135-2.734,8.748,8.748,0,0,0-.762-4.861,8.676,8.676,0,0,0-3.86-3.026,9.233,9.233,0,0,1-2.252-1.4,9.216,9.216,0,0,1-1.405-2.253,8.65,8.65,0,0,0-3.026-3.859,8.781,8.781,0,0,0-4.861-.762,9.7,9.7,0,0,1-2.734-.135,10.024,10.024,0,0,1-2.4-1.248A9.265,9.265,0,0,0,29.4,0a9.227,9.227,0,0,0-4.847,1.876,10.052,10.052,0,0,1-2.4,1.247,9.725,9.725,0,0,1-2.734.135,8.754,8.754,0,0,0-4.861.762,8.665,8.665,0,0,0-3.026,3.859,9.265,9.265,0,0,1-1.405,2.253,9.237,9.237,0,0,1-2.253,1.4,8.661,8.661,0,0,0-3.859,3.026,8.776,8.776,0,0,0-.762,4.862,9.725,9.725,0,0,1-.135,2.734,10.052,10.052,0,0,1-1.247,2.4A9.269,9.269,0,0,0,0,29.4,9.276,9.276,0,0,0,1.871,34.25a10.085,10.085,0,0,1,1.248,2.4,9.7,9.7,0,0,1,.135,2.734,8.748,8.748,0,0,0,.762,4.861,8.665,8.665,0,0,0,3.859,3.026,9.211,9.211,0,0,1,2.252,1.405,5.338,5.338,0,0,1,.794,1.1l-6.7,16.455a1.511,1.511,0,0,0,2.146,1.885l7.8-4.425L16.649,72.3A1.512,1.512,0,0,0,18.022,73.4H18.1a1.511,1.511,0,0,0,1.4-.942l6.068-14.9A7.607,7.607,0,0,0,29.4,58.8a7.6,7.6,0,0,0,3.828-1.246l6.068,14.9a1.511,1.511,0,0,0,1.4.941h.082a1.511,1.511,0,0,0,1.373-1.09l2.487-8.612,7.8,4.425a1.512,1.512,0,0,0,2.146-1.885l-6.7-16.46a5.3,5.3,0,0,1,.794-1.1,9.237,9.237,0,0,1,2.253-1.4,8.65,8.65,0,0,0,3.859-3.026,8.774,8.774,0,0,0,.762-4.861,9.725,9.725,0,0,1,.135-2.734,10.022,10.022,0,0,1,1.247-2.4A9.274,9.274,0,0,0,58.8,29.4a9.278,9.278,0,0,0-1.871-4.847ZM18.345,67.279l-1.81-6.266a1.512,1.512,0,0,0-1.872-1.036,1.484,1.484,0,0,0-.33.139l-5.673,3.22,4.151-10.194a5.793,5.793,0,0,0,1.744,1.64,8.79,8.79,0,0,0,4.861.762,9.725,9.725,0,0,1,2.734.135,4.636,4.636,0,0,1,.788.31ZM44.46,60.117a1.513,1.513,0,0,0-2.063.567,1.565,1.565,0,0,0-.139.33l-1.806,6.265-4.6-11.291a4.644,4.644,0,0,1,.789-.31,9.7,9.7,0,0,1,2.734-.135,8.745,8.745,0,0,0,4.86-.762,5.766,5.766,0,0,0,1.744-1.642l4.152,10.194Zm9.906-27.481a12.317,12.317,0,0,0-1.6,3.2,11.987,11.987,0,0,0-.245,3.646,6.524,6.524,0,0,1-.349,3.223,6.388,6.388,0,0,1-2.622,1.859,11.461,11.461,0,0,0-3.017,1.962,9.671,9.671,0,0,0-1.652,2.419l-.013.025c-.1.192-.2.384-.3.576a6.4,6.4,0,0,1-1.86,2.621,6.538,6.538,0,0,1-3.222.35,11.987,11.987,0,0,0-3.646.245,12.318,12.318,0,0,0-3.2,1.6A6.949,6.949,0,0,1,29.4,55.777a6.943,6.943,0,0,1-3.238-1.407,12.32,12.32,0,0,0-3.2-1.607,8.971,8.971,0,0,0-2.389-.272c-.422,0-.842.015-1.258.031a6.512,6.512,0,0,1-3.222-.35,6.391,6.391,0,0,1-1.859-2.621c-.1-.192-.2-.385-.3-.577l-.012-.024a9.671,9.671,0,0,0-1.652-2.419,11.445,11.445,0,0,0-3.017-1.957,6.4,6.4,0,0,1-2.621-1.86,6.528,6.528,0,0,1-.35-3.222,11.992,11.992,0,0,0-.241-3.647,12.313,12.313,0,0,0-1.6-3.2A6.951,6.951,0,0,1,3.026,29.4a6.943,6.943,0,0,1,1.408-3.238,12.318,12.318,0,0,0,1.6-3.2,11.985,11.985,0,0,0,.241-3.646,6.522,6.522,0,0,1,.349-3.222,6.389,6.389,0,0,1,2.622-1.86,11.479,11.479,0,0,0,3.017-1.961,11.479,11.479,0,0,0,1.961-3.017,6.4,6.4,0,0,1,1.86-2.622,6.52,6.52,0,0,1,3.222-.349,11.968,11.968,0,0,0,3.647-.245,12.31,12.31,0,0,0,3.2-1.6A6.918,6.918,0,0,1,29.4,3.024a6.943,6.943,0,0,1,3.238,1.407,12.3,12.3,0,0,0,3.2,1.6,11.968,11.968,0,0,0,3.647.245,6.513,6.513,0,0,1,3.222.349,6.364,6.364,0,0,1,1.857,2.618,11.479,11.479,0,0,0,1.961,3.017,11.479,11.479,0,0,0,3.017,1.961,6.394,6.394,0,0,1,2.621,1.859,6.528,6.528,0,0,1,.35,3.222,11.994,11.994,0,0,0,.245,3.647,12.318,12.318,0,0,0,1.6,3.2A6.939,6.939,0,0,1,55.772,29.4a6.974,6.974,0,0,1-1.406,3.24M29.4,9.685A19.714,19.714,0,1,0,49.112,29.4,19.714,19.714,0,0,0,29.4,9.685m0,36.4A16.69,16.69,0,1,1,46.088,29.4,16.69,16.69,0,0,1,29.4,46.089" fill="url(#linear-gradient)"/>
  </g>
</svg>
