<svg xmlns="http://www.w3.org/2000/svg" xmlns:xlink="http://www.w3.org/1999/xlink" width="64" height="70" viewBox="0 0 64 70">
  <defs>
    <linearGradient id="linear-gradient" x1="0.827" y1="0.123" x2="0.242" y2="0.903" gradientUnits="objectBoundingBox">
      <stop offset="0" stop-color="#f59302"/>
      <stop offset="1" stop-color="#f35906"/>
    </linearGradient>
    <clipPath id="clip-path">
      <rect id="Rectangle_252" data-name="Rectangle 252" width="64" height="70" transform="translate(0.018 0.479)" fill="url(#linear-gradient)"/>
    </clipPath>
    <linearGradient id="linear-gradient-2" x1="0.5" y1="0" x2="0.5" y2="1" xlink:href="#linear-gradient"/>
  </defs>
  <g id="Group_487" data-name="Group 487" transform="translate(0.125 -0.727)">
    <g id="Group_486" data-name="Group 486" transform="translate(-0.143 0.248)" clip-path="url(#clip-path)">
      <path id="Path_1809" data-name="Path 1809" d="M59.575,53.531a11.189,11.189,0,0,0-10.137-9.374V15.876A15.9,15.9,0,0,0,33.551,0H28.333A15.9,15.9,0,0,0,12.446,15.876V44.157A11.189,11.189,0,0,0,2.309,53.531L.016,67.875a1.24,1.24,0,0,0,1.029,1.418,1.256,1.256,0,0,0,.193.015c.02.007,54.935.006,59.409,0a1.247,1.247,0,0,0,1.236-1.256,1.2,1.2,0,0,0-.015-.177ZM49.75,55.364a1,1,0,1,1-.979.979A1,1,0,0,1,49.75,55.364Zm-3.784-11.72a1.191,1.191,0,0,0-.934-1.056l-3.893-.89a3.485,3.485,0,0,1-2.62-2.659l-.473-2.213a13.762,13.762,0,0,0,6.671-11.777V20.429c.884-.088,1.639-.191,2.245-.286V43.792Zm-4.878,7.391,1.361,1.771L33.7,66.3l5.127-22.926a14.975,14.975,0,0,0,4.229,1.3l-2.126,5.133A1.24,1.24,0,0,0,41.089,51.036ZM21.039,49.807l-2.134-5.129a14.5,14.5,0,0,0,4.224-1.3L28.281,66.3,19.506,52.808c.625-.96,2.008-2.019,1.531-3Zm9.911-13.464a11.312,11.312,0,0,1-11.31-11.293V17.836a12.025,12.025,0,0,0,5.341-4.14q.271.433.576.866c3.8,5.414,11.3,6.229,16.685,6.037v4.451A11.3,11.3,0,0,1,30.951,36.343Zm0,2.475a13.658,13.658,0,0,0,4.8-.881,10.941,10.941,0,0,0,1.007,3.324l-1.4,6.266a9.617,9.617,0,0,1-8.76,0l-1.412-6.29a9.985,9.985,0,0,0,1.011-3.28A13.725,13.725,0,0,0,30.951,38.819Zm-3.7,11.623a11.509,11.509,0,0,0,7.453,0l-3.667,16.4a.432.432,0,0,0-.106-.01ZM28.333,2.475h5.218A13.637,13.637,0,0,1,47.046,16.257a13.1,13.1,0,0,1-.083,1.376c-4.306.85-17.649,1.739-20.787-6.922a1.248,1.248,0,0,0-2.26.006,9.966,9.966,0,0,1-5.849,5.035,1.235,1.235,0,0,0-.9,1.189v8.109A13.758,13.758,0,0,0,23.9,36.86l-.452,2.177A3.522,3.522,0,0,1,20.83,41.7l-3.9.891A1.185,1.185,0,0,0,16,43.631l-1.081.16V15.876a13.42,13.42,0,0,1,13.412-13.4M4.753,53.922a8.608,8.608,0,0,1,6.4-7,12.828,12.828,0,0,0-.823,6.766,5.261,5.261,0,0,0-3.032,5.785c.275.967.121,2.917,1.578,2.91.079.019,1.848-.33,1.979-.355a1.238,1.238,0,0,0-.467-2.432l-.528.1a2.859,2.859,0,1,1,5.479-1.046l-.465.089a1.238,1.238,0,0,0,.464,2.432l1.682-.322A1.237,1.237,0,0,0,18,59.405l-.364-1.9a5.245,5.245,0,0,0-4.869-4.251c-.2-1.784-.264-5.41,2.068-6.942l1.957-.29,1.687,4.077-1.467,1.895a1.236,1.236,0,0,0-.059,1.432l8.722,13.412H2.689Zm31.552,12.91L45,53.42a1.24,1.24,0,0,0-.058-1.427l-1.459-1.9,1.684-4.066,1.881.277c2.328,1.522,2.3,4.953,2.121,6.64a3.468,3.468,0,1,0,2.437.493,12.151,12.151,0,0,0-.838-6.507,8.606,8.606,0,0,1,6.359,6.989l2.063,12.91Z" transform="translate(0.128 1.645)" fill="url(#linear-gradient-2)"/>
    </g>
  </g>
</svg>
